# xmcd
#
# Track frame offsets: 
#        150
#        21520
#        41037
#        62880
#        97832
#        114126
#        129035
#        146428
#        167493
#        192041
#        203794
#        226871
#        244170
#
# Disc length: 3551 seconds
#
# Revision: 0
# Processed by: cddbd v1.5.2PL0 Copyright (c) Steve Scherf et al.
# Submitted via: ExactAudioCopy v0.99pb4
#
DISCID=a10ddd0d
DTITLE=Ali Farka Touré - Savane 
DYEAR=1900
DGENRE=Blues
TTITLE0=Erdi
TTITLE1=Yer Bounda Fara
TTITLE2=Beto
TTITLE3=Savane
TTITLE4=Soya
TTITLE5=Penda Yoro
TTITLE6=Machengoidi
TTITLE7=Ledi Coumbe
TTITLE8=Hanana
TTITLE9=Soko Yhinka
TTITLE10=Gambari Didi
TTITLE11=Banda
TTITLE12=N'Jarou
EXTD=
EXTT0=
EXTT1=
EXTT2=
EXTT3=
EXTT4=
EXTT5=
EXTT6=
EXTT7=
EXTT8=
EXTT9=
EXTT10=
EXTT11=
EXTT12=
PLAYORDER=
